# xmcd CD database file
#
# Track frame offsets:
#	150
#	17302
#	33740
#	62695
#
# Disc length: 1593 seconds
#
# Revision: 0
# Processed by: cddbd v1.4PL0 Copyright (c) Steve Scherf et al.
# Submitted via: CDex 1.40Beta9
#
DISCID=28063704
DTITLE=Dixie Chicks - Ready To Run [CD2)
DYEAR=1999
DGENRE=Country
TTITLE0=Ready To Run
TTITLE1=Loving Arms
TTITLE2=I Can Love You Better
TTITLE3=Ready To Run Video
EXTD=YEAR: 1999 ID3G: 2
EXTT0=
EXTT1=
EXTT2=
EXTT3=
PLAYORDER=
